<?xml version="1.0" encoding="UTF-8"?>
<svg xmlns="http://www.w3.org/2000/svg" width="1280" height="760" viewBox="0 0 1280 760" role="img" aria-labelledby="title desc">
  <title id="title">Wireframe Halaman Autentikasi</title>
  <desc id="desc">Wireframe low fidelity untuk media pembelajaran Utilwind.</desc>
  <style>
    text { font-family: "Plus Jakarta Sans", Inter, Arial, sans-serif; }
    .mono { font-family: "Fira Code", Consolas, monospace; }
  </style>
  <rect width="1280" height="760" fill="#f8fafc"/>
  <rect x="52" y="36" width="112" height="38" rx="19" fill="#ffffff" stroke="#cbd5e1" stroke-width="1"/><text x="108" y="60" fill="#334155" font-size="13" font-weight="800" text-anchor="middle">Kembali</text><rect x="110" y="96" width="1060" height="560" rx="28" fill="#ffffff" stroke="#cbd5e1" stroke-width="1"/><line x1="612" y1="96" x2="612" y2="656" stroke="#cbd5e1" stroke-width="1" stroke-linecap="round"/><text x="176" y="168" fill="#0f172a" font-size="34" font-weight="900">Masuk / Daftar</text><rect x="178" y="192" width="280" height="10" rx="5" fill="#94a3b8" stroke="none" stroke-width="0" opacity="0.72"/><rect x="178" y="210" width="220" height="10" rx="5" fill="#94a3b8" stroke="none" stroke-width="0" opacity="0.72"/><rect x="176" y="238" width="104" height="34" rx="17" fill="#0f172a" stroke="none" stroke-width="0"/><text x="228" y="260" fill="#ffffff" font-size="12" font-weight="800" text-anchor="middle" letter-spacing="0.4">Masuk</text><rect x="292" y="238" width="104" height="34" rx="17" fill="#eef2f7" stroke="none" stroke-width="0"/><text x="344" y="260" fill="#334155" font-size="12" font-weight="800" text-anchor="middle" letter-spacing="0.4">Daftar</text><text x="178" y="320" fill="#64748b" font-size="12" font-weight="900" letter-spacing="0.8">Alamat Email</text><rect x="176" y="334" width="342" height="54" rx="14" fill="#f8fafc" stroke="#cbd5e1" stroke-width="1"/><text x="202" y="368" fill="#64748b" font-size="14" font-weight="600">nama@email.com</text><text x="178" y="424" fill="#64748b" font-size="12" font-weight="900" letter-spacing="0.8">Password</text><rect x="176" y="438" width="342" height="54" rx="14" fill="#f8fafc" stroke="#cbd5e1" stroke-width="1"/><rect x="202" y="460" width="142" height="12" rx="6" fill="#64748b" stroke="none" stroke-width="0" opacity="0.55"/><rect x="176" y="518" width="18" height="18" rx="5" fill="#ffffff" stroke="#cbd5e1" stroke-width="1"/><text x="206" y="532" fill="#334155" font-size="13" font-weight="700">Ingat sesi saya</text><rect x="176" y="566" width="342" height="54" rx="17" fill="#0f172a" stroke="none" stroke-width="0"/><text x="347" y="600" fill="#ffffff" font-size="15" font-weight="900" text-anchor="middle">Masuk ke Workspace</text><rect x="674" y="140" width="420" height="420" rx="30" fill="#020617" stroke="none" stroke-width="0"/><circle cx="722" cy="188" r="8" fill="#f87171"/><circle cx="750" cy="188" r="8" fill="#fbbf24"/><circle cx="778" cy="188" r="8" fill="#34d399"/><text x="718" y="238" fill="#ffffff" font-size="18" font-weight="900">Preview Media Pembelajaran</text><rect x="718" y="268" width="280" height="10" rx="5" fill="#64748b" stroke="none" stroke-width="0" opacity="0.72"/><rect x="718" y="288" width="220" height="10" rx="5" fill="#64748b" stroke="none" stroke-width="0" opacity="0.72"/><rect x="718" y="308" width="310" height="10" rx="5" fill="#64748b" stroke="none" stroke-width="0" opacity="0.72"/><rect x="718" y="350" width="158" height="80" rx="16" fill="#1e293b" stroke="#334155" stroke-width="1"/><rect x="902" y="350" width="142" height="80" rx="16" fill="#1e293b" stroke="#334155" stroke-width="1"/><text x="744" y="386" fill="#22c1dc" font-size="13" font-weight="800">Materi</text><rect x="744" y="404" width="96" height="10" rx="5" fill="#334155" stroke="none" stroke-width="0"/><rect x="744" y="404" width="67.19999999999999" height="10" rx="5" fill="#22c1dc" stroke="none" stroke-width="0"/><text x="928" y="386" fill="#d946ef" font-size="13" font-weight="800">Kuis</text><rect x="928" y="404" width="80" height="10" rx="5" fill="#334155" stroke="none" stroke-width="0"/><rect x="928" y="404" width="44" height="10" rx="5" fill="#d946ef" stroke="none" stroke-width="0"/><rect x="718" y="464" width="326" height="46" rx="23" fill="#ffffff" stroke="none" stroke-width="0"/><text x="881" y="493" fill="#0f172a" font-size="14" font-weight="900" text-anchor="middle">Lanjutkan Belajar</text>
  <rect x="36" y="708" width="290" height="28" rx="14" fill="#ffffff" stroke="#cbd5e1" stroke-width="1"/><text x="58" y="727" fill="#64748b" font-size="12" font-weight="800">Low fidelity wireframe - Utilwind</text><text x="1220" y="727" fill="#64748b" font-size="12" font-weight="800" text-anchor="end">02 / Autentikasi</text>
</svg>
